<svg width="64" height="18" viewBox="0 0 64 18" fill="none" xmlns="http://www.w3.org/2000/svg">
<path d="M9.12975 12.397C9.12975 13.6644 8.3515 14.3245 7.00624 14.3245H4.03374V10.3946H6.95907C8.30434 10.3935 9.12975 11.1297 9.12975 12.397ZM8.72883 5.37359C8.72883 6.59027 7.99776 7.22505 6.67608 7.22505H4.03374V3.49677H6.67608C7.99776 3.49677 8.72883 4.15691 8.72883 5.37359ZM10.0259 8.69521C11.6306 8.18826 12.8333 6.79305 12.8333 4.63851C12.8333 1.82384 10.8277 0.0241732 7.45432 0.0241732H0V17.8236H7.71476C11.2061 17.8236 13.2117 15.9214 13.2117 12.9811C13.2107 10.9522 11.9607 9.12611 10.0259 8.69521ZM46.71 17.8236L40.0575 8.7459L46.4741 0.0230713H41.7319L36.2114 7.83229V0.0230713H32.1776V17.8225H36.2114V9.96258L41.779 17.8225H46.71V17.8236ZM56.5 8.7459L62.9167 0.0230713H58.1744L52.6539 7.83229V0.0230713H48.6202V17.8225H52.6539V9.96258L58.2216 17.8225H63.1525L56.5 8.7459Z" fill="white"/>
<path d="M17.5354 16.2389L17.5272 16.2499H17.5487C18.7709 17.4159 20.4422 18 22.3186 18C24.1837 18 25.9002 17.4148 27.1716 16.2499H27.1829L27.1788 16.2444C27.1829 16.24 27.188 16.2378 27.1921 16.2334H27.1706L22.3545 11.4019L17.5384 16.2334H17.5282C17.5313 16.2356 17.5333 16.2367 17.5354 16.2389ZM19.5112 3.8969H21.4553L17.5128 0L13.5703 3.8969H15.4764V10.6481C15.4764 11.6554 15.6067 12.5547 15.8404 13.3526L19.5112 9.7246V3.8969ZM29.3495 3.8969H31.3089L27.3664 0L23.424 3.8969H25.3147V9.81387L28.9516 13.4088C29.2152 12.6087 29.3495 11.7149 29.3495 10.6481V3.8969Z" fill="#F2CA2D"/>
</svg>
